<svg width="120" height="120" viewBox="0 0 120 120" fill="none" xmlns="http://www.w3.org/2000/svg">
<circle cx="60" cy="60.0004" r="11.2871" fill="white"/>
<path fill-rule="evenodd" clip-rule="evenodd" d="M63.2673 0.0874497V6.63285C90.1931 8.25604 111.744 29.8069 113.367 56.7327H119.913C118.274 26.1967 93.8033 1.72615 63.2673 0.0874497Z" fill="white"/>
<path fill-rule="evenodd" clip-rule="evenodd" d="M63.2673 26.8935V33.4674C75.4193 34.9482 85.0542 44.583 86.535 56.735H93.1089C91.5721 40.9705 79.0319 28.4302 63.2673 26.8935Z" fill="white"/>
<path fill-rule="evenodd" clip-rule="evenodd" d="M63.2673 13.4782V20.0313C82.8076 21.6071 98.3921 37.1915 99.9678 56.7318H106.521C104.919 33.5806 86.4185 15.0805 63.2673 13.4782Z" fill="white"/>
<path d="M35.6436 6.83406H24.3564V56.735H0V18.7152H15.4455V47.8242H8.91089V25.2499H6.53465V50.2004H17.8152V0.299404H42.1782V14.5568L51.0891 9.06178V34.7908C48.7433 35.6199 46.5478 36.7672 44.5545 38.1807V21.537L33.2673 28.3687V50.2004H35.6436V29.7053L42.1881 25.6954L42.1782 56.735H26.7327V24.0618L35.6436 18.5667V6.83406Z" fill="white"/>
<path fill-rule="evenodd" clip-rule="evenodd" d="M59.9125 119.998C27.8717 119.998 1.69675 94.8826 0 63.265H6.60624H26.2873H32.8802C34.5599 76.6174 45.9556 86.9455 59.7637 86.9455C73.5717 86.9455 84.9675 76.6174 86.6471 63.265H86.717H93.24H93.2884H113.263H119.825C118.128 94.8826 91.9534 119.998 59.9125 119.998ZM59.7637 93.4964C44.6447 93.4964 31.8548 83.5248 27.6117 69.7996H7.70425C12.1322 87.1876 27.8952 100.047 46.6616 100.047C56.1081 100.047 64.7936 96.7889 71.6554 91.3347C67.9581 92.7318 63.9502 93.4964 59.7637 93.4964ZM112.465 69.7996C107.861 94.6373 86.0835 113.447 59.9125 113.447C47.7287 113.447 36.497 109.37 27.5071 102.506C33.3528 105.135 39.8366 106.598 46.6619 106.598C69.0661 106.598 87.7892 90.8381 92.35 69.7996H112.465Z" fill="white"/>
</svg>
